HIERARCHY
ROOT Hips
{
 OFFSET 0.000000 0.000000 0.000000
 CHANNELS 6 Xposition Yposition Zposition Yrotation Xrotation Zrotation
 JOINT Chest
 {
  OFFSET 0.000000 9.588913 -0.003946
  CHANNELS 3 Yrotation Xrotation Zrotation
  JOINT Chest2
  {
   OFFSET 0.000000 9.541882 0.008053
   CHANNELS 3 Yrotation Xrotation Zrotation
   JOINT Chest3
   {
    OFFSET 0.000000 9.501360 0.000000
    CHANNELS 3 Yrotation Xrotation Zrotation
    JOINT Chest4
    {
     OFFSET 0.000000 9.491660 0.000000
     CHANNELS 3 Yrotation Xrotation Zrotation
     JOINT Neck
     {
      OFFSET 0.000000 14.331917 0.000000
      CHANNELS 3 Yrotation Xrotation Zrotation
      JOINT Head
      {
       OFFSET 0.000000 8.884799 0.017034
       CHANNELS 3 Yrotation Xrotation Zrotation
       End Site
       {
        OFFSET 0.000000 16.896195 0.008993
       }
      }
     }
     JOINT RightCollar
     {
      OFFSET -2.923010 9.499495 0.000000
      CHANNELS 3 Yrotation Xrotation Zrotation
      JOINT RightShoulder
      {
       OFFSET -13.795216 0.000000 0.000000
       CHANNELS 3 Yrotation Xrotation Zrotation
       JOINT RightElbow
       {
        OFFSET -30.272209 0.000000 0.000000
        CHANNELS 3 Yrotation Xrotation Zrotation
        JOINT RightWrist
        {
         OFFSET -24.478199 0.000000 0.000000
         CHANNELS 3 Yrotation Xrotation Zrotation
         End Site
         {
          OFFSET -18.090752 0.000000 0.000000
         }
        }
       }
      }
     }
     JOINT LeftCollar
     {
      OFFSET 2.923010 9.499495 0.000000
      CHANNELS 3 Yrotation Xrotation Zrotation
      JOINT LeftShoulder
      {
       OFFSET 13.795216 0.000000 0.000000
       CHANNELS 3 Yrotation Xrotation Zrotation
       JOINT LeftElbow
       {
        OFFSET 30.272209 0.000000 0.000000
        CHANNELS 3 Yrotation Xrotation Zrotation
        JOINT LeftWrist
        {
         OFFSET 24.478199 0.000000 0.000000
         CHANNELS 3 Yrotation Xrotation Zrotation
         End Site
         {
          OFFSET 18.090752 0.000000 0.000000
         }
        }
       }
      }
     }
    }
   }
  }
 }
 JOINT RightHip
 {
  OFFSET -7.826875 0.019532 0.001973
  CHANNELS 3 Yrotation Xrotation Zrotation
  JOINT RightKnee
  {
   OFFSET 0.000000 -40.546152 -0.001885
   CHANNELS 3 Yrotation Xrotation Zrotation
   JOINT RightAnkle
   {
    OFFSET 0.000000 -39.417092 -0.003189
    CHANNELS 3 Yrotation Xrotation Zrotation
    JOINT RightToe
    {
     OFFSET 0.000000 -7.579396 17.243563
     CHANNELS 3 Yrotation Xrotation Zrotation
     End Site
     {
      OFFSET 0.000000 -1.500329 6.694466
     }
    }
   }
  }
 }
 JOINT LeftHip
 {
  OFFSET 7.826875 0.019532 0.001973
  CHANNELS 3 Yrotation Xrotation Zrotation
  JOINT LeftKnee
  {
   OFFSET 0.000000 -40.546152 -0.001885
   CHANNELS 3 Yrotation Xrotation Zrotation
   JOINT LeftAnkle
   {
    OFFSET 0.000000 -39.417092 -0.003189
    CHANNELS 3 Yrotation Xrotation Zrotation
    JOINT LeftToe
    {
     OFFSET 0.000000 -7.579396 17.243563
     CHANNELS 3 Yrotation Xrotation Zrotation
     End Site
     {
      OFFSET 0.000000 -1.500329 6.694466
     }
    }
   }
  }
 }
}
MOTION
Frames: 9
Frame Time: 0.008333
-6.056417 88.129413 -24.079932 137.706773 -5.693324 0.084525 2.398715 2.766192 0.140975 1.380581 1.572425 0.081886 1.726240 1.965187 0.108288 1.380581 1.572425 0.081886 2.909244 19.694305 1.424096 2.772351 -4.845907 0.852231 3.774192 0.019795 -1.825668 -19.305520 -14.106729 76.696375 40.678893 -49.029669 36.949480 -19.382833 -25.960951 10.610783 -4.847282 1.748902 0.173927 15.067562 -1.372678 -88.710792 -51.056978 -23.614765 -42.312051 -5.983578 -11.766768 8.658563 -15.693898 9.654210 -10.845186 17.098792 0.650008 -2.784466 15.941271 -9.124440 4.455080 -0.023734 0.032192 -0.011382 12.256634 8.153173 11.293839 7.137982 -0.407523 -0.221967 8.604507 -1.935593 -8.967349 0.009183 0.046940 -0.001718
-6.051939 88.129252 -24.080541 137.735913 -5.709434 0.085772 2.394117 2.771057 0.143109 1.378448 1.574762 0.083944 1.723584 1.968101 0.110861 1.378448 1.574762 0.083944 2.879660 19.726765 1.423879 2.741048 -4.810122 0.858829 3.833975 0.092553 -1.907030 -19.096912 -14.059097 76.285761 41.200915 -47.556406 35.998866 -20.748958 -25.223678 9.835776 -4.812953 1.725340 0.162254 15.032346 -1.407525 -88.726336 -51.034320 -23.579035 -42.320932 -5.968471 -11.745375 8.639898 -15.708074 9.671288 -10.849101 17.095441 0.667055 -2.782305 15.923982 -9.138078 4.442525 -0.026305 0.032978 -0.007018 12.253178 8.154466 11.299696 7.128804 -0.389483 -0.222536 8.583013 -1.947063 -8.967410 0.009651 0.048347 -0.002287
-6.048090 88.129431 -24.081171 137.767961 -5.723822 0.087798 2.391881 2.777131 0.148422 1.377248 1.578020 0.087136 1.722098 1.972162 0.114859 1.377248 1.578020 0.087136 2.845182 19.751091 1.414460 2.706490 -4.783733 0.856684 3.886753 0.200954 -2.005200 -18.875184 -13.993540 75.874354 41.683762 -46.219452 35.258530 -22.448829 -24.356448 9.393716 -4.785948 1.697615 0.149990 14.997118 -1.437260 -88.739663 -51.012107 -23.551383 -42.327252 -5.957898 -11.728021 8.625160 -15.723271 9.685173 -10.855178 17.090624 0.683764 -2.781351 15.921613 -9.151970 4.429149 -0.026947 0.032432 -0.002002 12.243445 8.155077 11.305030 7.121063 -0.372643 -0.228870 8.569217 -1.956948 -8.964588 0.010569 0.049255 -0.001372
-6.044728 88.130216 -24.081910 137.803213 -5.738940 0.089901 2.391022 2.784985 0.156330 1.376672 1.582498 0.090958 1.721397 1.977745 0.119651 1.376672 1.582498 0.090958 2.807159 19.768455 1.396889 2.669903 -4.765371 0.846620 3.937572 0.333064 -2.107543 -18.620117 -13.906437 75.453501 42.221246 -45.029733 34.638570 -24.456266 -23.362304 9.299107 -4.762256 1.666658 0.138213 14.962982 -1.462068 -88.749580 -50.986027 -23.525749 -42.340623 -5.952482 -11.719646 8.614667 -15.737346 9.698529 -10.862150 17.084606 0.702063 -2.781736 15.927786 -9.165516 4.415670 -0.025737 0.029648 0.002909 12.230307 8.156608 11.310046 7.116913 -0.356992 -0.235998 8.552687 -1.964830 -8.961215 0.011752 0.048912 -0.000202
-6.041913 88.131766 -24.082603 137.842022 -5.755258 0.091241 2.390439 2.794192 0.165299 1.376229 1.587858 0.095051 1.720863 1.984430 0.124786 1.376229 1.587858 0.095051 2.767260 19.780754 1.373468 2.632581 -4.752822 0.830723 3.985765 0.464560 -2.200867 -18.326029 -13.789508 75.010051 42.838940 -43.992602 34.109611 -26.691847 -22.266672 9.531233 -4.738848 1.634776 0.129319 14.934462 -1.483167 -88.755209 -50.954727 -23.501927 -42.368694 -5.948691 -11.716971 8.607033 -15.750523 9.713150 -10.867019 17.078265 0.723097 -2.782481 15.925448 -9.177623 4.402338 -0.023562 0.025117 0.006756 12.216104 8.157775 11.314508 7.113557 -0.341050 -0.240524 8.532672 -1.971219 -8.959229 0.012336 0.047354 0.001180
-6.040177 88.134084 -24.083128 137.885298 -5.771271 0.093221 2.389804 2.802644 0.174074 1.375424 1.593540 0.099598 1.719879 1.991516 0.130488 1.375424 1.593540 0.099598 2.726122 19.789513 1.346295 2.594754 -4.744325 0.811097 4.025593 0.586234 -2.285027 -17.998191 -13.644365 74.559163 43.527688 -43.113242 33.665580 -29.033267 -21.113480 10.054436 -4.717882 1.606388 0.119863 14.913537 -1.500262 -88.756601 -50.923837 -23.484338 -42.406565 -5.941782 -11.715425 8.595526 -15.765141 9.730609 -10.869918 17.068083 0.741064 -2.784140 15.904298 -9.184454 4.394418 -0.024093 0.019701 0.006575 12.197572 8.157129 11.314490 7.104457 -0.324774 -0.239051 8.516776 -1.974868 -8.959633 0.012112 0.043964 0.002365
-6.039947 88.137046 -24.083698 137.931418 -5.787100 0.098469 2.388704 2.809749 0.180612 1.374573 1.599006 0.103853 1.718836 1.998332 0.135824 1.374572 1.599006 0.103853 2.683572 19.795599 1.318668 2.555499 -4.738877 0.791298 4.056049 0.701604 -2.359196 -17.653504 -13.473007 74.132033 44.238084 -42.419103 33.333335 -31.342626 -19.922630 10.822291 -4.700698 1.588407 0.110628 14.900048 -1.514808 -88.755776 -50.897360 -23.472303 -42.447678 -5.928970 -11.713702 8.573447 -15.781590 9.751892 -10.874458 17.052542 0.751902 -2.788068 15.868518 -9.185985 4.394538 -0.028286 0.014644 0.002258 12.174461 8.155869 11.307886 7.087801 -0.308377 -0.231526 8.503792 -1.975037 -8.961375 0.011264 0.037703 0.002079
-6.041092 88.140401 -24.084146 137.981232 -5.803121 0.105530 2.385293 2.817616 0.185213 1.373378 1.604041 0.107209 1.717359 2.004613 0.140033 1.373378 1.604041 0.107209 2.640623 19.798703 1.293196 2.515310 -4.736784 0.773875 4.080108 0.816506 -2.424347 -17.317066 -13.280395 73.750726 44.895857 -41.959019 33.176883 -33.514169 -18.687364 11.775239 -4.687099 1.581064 0.105674 14.893864 -1.526995 -88.752805 -50.879300 -23.464562 -42.489285 -5.916124 -11.711337 8.545340 -15.801471 9.774455 -10.883426 17.033833 0.758314 -2.792104 15.841131 -9.187431 4.395982 -0.029789 0.010327 -0.001322 12.147166 8.153556 11.298308 7.067624 -0.290957 -0.222871 8.491489 -1.972870 -8.961746 0.010119 0.029807 0.000656
-6.043655 88.143808 -24.084237 138.037175 -5.818566 0.113409 2.377547 2.827923 0.189490 1.370556 1.609087 0.110268 1.713848 2.010910 0.143864 1.370556 1.609087 0.110268 2.599981 19.797761 1.268129 2.477469 -4.739185 0.756352 4.103909 0.934381 -2.486999 -17.011798 -13.073622 73.424131 45.467378 -41.767366 33.232982 -35.505810 -17.409576 12.865290 -4.674574 1.578839 0.101539 14.892804 -1.534490 -88.744442 -50.874541 -23.462139 -42.527093 -5.904302 -11.705689 8.514992 -15.826808 9.794580 -10.897585 17.013401 0.765063 -2.793437 15.830103 -9.192113 4.393650 -0.027411 0.006543 -0.001758 12.112857 8.149177 11.286096 7.047968 -0.272751 -0.214455 8.481670 -1.969165 -8.961543 0.009266 0.022215 0.000203
